<svg width="39" height="40" viewBox="0 0 39 40" fill="none" xmlns="http://www.w3.org/2000/svg">
<path d="M24.1996 35.9834C23.8572 35.9834 23.5796 35.6962 23.5796 35.342C23.5796 34.9878 23.8572 34.7006 24.1996 34.7006C24.7179 34.7006 25.218 34.5421 25.6457 34.2427C25.9295 34.044 26.3149 34.1213 26.507 34.4143C26.6991 34.7079 26.6247 35.1065 26.3411 35.3052C25.7072 35.7488 24.9665 35.9834 24.1996 35.9834Z" fill="#003566"/>
<path d="M3.71649 29.6859C3.3741 29.6859 3.09642 29.3987 3.09642 29.0445V1.96033C3.09642 1.18385 3.70678 0.552216 4.45744 0.552216H26.6643C27.415 0.552216 28.0253 1.18386 28.0253 1.96033V4.72514C28.0253 5.0793 27.7476 5.36652 27.4052 5.36652C27.0628 5.36652 26.7852 5.0793 26.7852 4.72514V1.96033C26.7852 1.89095 26.731 1.83497 26.6643 1.83497L4.45742 1.83527C4.39094 1.83527 4.33652 1.89126 4.33652 1.96063V29.0448C4.33681 29.399 4.05918 29.6859 3.71649 29.6859Z" fill="#003566"/>
<path d="M24.6259 35.9849H4.68488C3.67507 35.9849 2.71586 35.5736 1.98429 34.8272C1.25715 34.0754 0.858887 33.0823 0.858887 32.0275V29.0438C0.858887 28.6897 1.13657 28.4025 1.47896 28.4025H21.4199C21.7623 28.4025 22.04 28.6897 22.04 29.0438V32.0275C22.04 32.7397 22.3095 33.4106 22.7992 33.9169C23.2943 34.4217 23.944 34.7019 24.6259 34.7019C24.9683 34.7019 25.246 34.9891 25.246 35.3433C25.2463 35.6978 24.9685 35.9849 24.6259 35.9849ZM2.09898 29.6855V32.0277C2.09898 32.74 2.36842 33.4109 2.85818 33.9172C3.35324 34.4219 4.00301 34.7021 4.68488 34.7021H21.8088C21.156 33.9671 20.7996 33.0248 20.7996 32.0277V29.6855H2.09898Z" fill="#003566"/>
<path d="M16.3049 26.3C16.2581 26.3 16.211 26.2963 16.1634 26.2884C15.7722 26.2236 15.4833 25.906 15.4448 25.4982L14.8409 19.1191L13.3216 23.3067C13.1948 23.6569 12.8794 23.883 12.5179 23.883C12.1596 23.9055 11.8387 23.6554 11.7129 23.303L10.7975 20.7481L9.40204 22.1915C9.28584 22.3117 9.12789 22.3796 8.96346 22.3796H6.86348C6.52109 22.3796 6.24341 22.0924 6.24341 21.7382C6.24341 21.384 6.52109 21.0968 6.86348 21.0968H8.70667L10.3413 19.406C10.5489 19.1915 10.8457 19.1018 11.132 19.1663C11.4193 19.2314 11.6514 19.4404 11.7535 19.7258L12.5198 21.8651L14.2567 17.0778C14.3976 16.6884 14.7747 16.4565 15.1724 16.5092C15.5707 16.5633 15.876 16.8901 15.9148 17.3036L16.5364 23.8723L18.3304 19.6521C18.4645 19.3366 18.7543 19.1337 19.0867 19.1218C19.4205 19.1121 19.7215 19.2919 19.8765 19.5965L21.3543 22.5064C21.4628 22.4951 21.5769 22.5173 21.6826 22.5718C21.9891 22.7303 22.1132 23.1155 21.9599 23.4326C21.8152 23.7317 21.5246 23.92 21.2007 23.9234C20.8569 23.9075 20.5824 23.7451 20.4318 23.4487L19.1467 20.9185L17.0847 25.769C16.9447 26.0988 16.6419 26.3 16.3049 26.3Z" fill="#003566"/>
<path d="M30.7826 22.6516H27.2914C26.949 22.6516 26.6713 22.3644 26.6713 22.0102V13.9984C26.6713 13.8198 26.7434 13.6494 26.8695 13.528C26.996 13.4072 27.1678 13.3463 27.3381 13.3588C28.4641 13.4467 29.6114 13.4568 30.7468 13.3886C30.9218 13.3783 31.0842 13.4416 31.2086 13.5627C31.3327 13.6834 31.4031 13.8523 31.4031 14.0291V22.0106C31.4031 22.3644 31.1253 22.6516 30.7826 22.6516ZM27.9114 21.3688H30.1626V14.7003C29.4113 14.7259 28.6583 14.7195 27.9114 14.6809V21.3688Z" fill="#003566"/>
<path d="M31.5191 36.8277H26.5556C26.2823 36.8277 26.0417 36.643 25.962 36.3725C24.8648 32.6371 24.8636 28.6656 25.9579 24.569C26.032 24.2909 26.2767 24.0983 26.5556 24.0983H31.5191C31.7944 24.0983 32.0365 24.286 32.1142 24.5589C33.2266 28.4766 33.2266 32.4493 32.1142 36.3672C32.0365 36.6401 31.7944 36.8277 31.5191 36.8277ZM27.0215 35.5446H31.0493C31.9264 32.1701 31.9264 28.755 31.0493 25.3806H27.0323C26.1651 28.9061 26.1614 32.3206 27.0215 35.5446Z" fill="#003566"/>
<path d="M31.4799 25.3809H26.5879C25.5183 25.3809 24.6482 24.4812 24.6482 23.3749C24.6482 22.2686 25.5186 21.3686 26.5879 21.3686H31.4799C32.5536 21.3686 33.4269 22.2689 33.4269 23.3749C33.4269 24.4808 32.5535 25.3809 31.4799 25.3809ZM26.5879 22.651C26.2022 22.651 25.8884 22.9754 25.8884 23.3746C25.8884 23.7732 26.2019 24.0978 26.5879 24.0978H31.4799C31.8697 24.0978 32.1868 23.7735 32.1868 23.3746C32.1868 22.969 31.8764 22.651 31.4799 22.651H26.5879Z" fill="#003566"/>
<path d="M31.4799 39.5578H26.5879C25.5183 39.5578 24.6482 38.6581 24.6482 37.5518C24.6482 36.4455 25.5186 35.5455 26.5879 35.5455H31.4799C32.5536 35.5455 33.4269 36.4458 33.4269 37.5518C33.4269 38.6578 32.5535 39.5578 31.4799 39.5578ZM26.5879 36.8283C26.2022 36.8283 25.8884 37.1526 25.8884 37.5518C25.8884 37.9504 26.2019 38.275 26.5879 38.275H31.4799C31.8697 38.275 32.1868 37.9507 32.1868 37.5518C32.1868 37.1462 31.8764 36.8283 31.4799 36.8283H26.5879Z" fill="#003566"/>
<path d="M29.257 14.7153C28.5831 14.7153 27.9103 14.6894 27.2447 14.6374C25.7601 14.5303 24.2143 14.2878 22.6532 13.9175C22.3717 13.8509 22.1717 13.5914 22.1717 13.2923V5.43386C22.1717 5.13569 22.3702 4.87707 22.6512 4.80922C26.9535 3.7714 31.2515 3.77234 35.4271 4.81013C35.7056 4.8795 35.9021 5.13721 35.9021 5.43387V13.2923C35.9021 13.5853 35.7103 13.8412 35.4362 13.9136C33.9301 14.3131 32.3776 14.5668 30.8218 14.6684C30.3009 14.6998 29.7785 14.7153 29.257 14.7153ZM23.4119 12.7771C24.7462 13.0711 26.0634 13.2661 27.3344 13.358C28.464 13.4462 29.6116 13.4574 30.7468 13.3886C32.0629 13.3028 33.3778 13.1012 34.6615 12.7896L34.6618 5.94371C30.9807 5.10303 27.2009 5.10459 23.4123 5.94705L23.4119 12.7771Z" fill="#003566"/>
<path d="M36.6909 14.8391C35.5723 14.8391 34.6624 13.8981 34.6624 12.7409V6.00125C34.6624 4.84418 35.5722 3.90303 36.6909 3.90303C37.8095 3.90303 38.7194 4.8441 38.7194 6.00125V12.7409C38.7194 13.8977 37.8096 14.8391 36.6909 14.8391ZM36.6909 5.18612C36.2564 5.18612 35.9025 5.55184 35.9025 6.00156V12.7412C35.9025 13.1906 36.2561 13.5567 36.6909 13.5567C37.1253 13.5567 37.4792 13.1909 37.4792 12.7412V6.00156C37.4792 5.55217 37.1254 5.18612 36.6909 5.18612Z" fill="#003566"/>
<path d="M21.3841 14.8391C20.2654 14.8391 19.3556 13.8981 19.3556 12.7409V6.00125C19.3556 4.84418 20.2654 3.90303 21.3841 3.90303C22.5028 3.90303 23.4126 4.8441 23.4126 6.00125V12.7409C23.4126 13.8977 22.5028 14.8391 21.3841 14.8391ZM21.3841 5.18612C20.9496 5.18612 20.5957 5.55184 20.5957 6.00156V12.7412C20.5957 13.1906 20.9493 13.5567 21.3841 13.5567C21.8185 13.5567 22.1724 13.1909 22.1724 12.7412V6.00156C22.1724 5.55217 21.8188 5.18612 21.3841 5.18612Z" fill="#003566"/>
<path d="M30.7468 13.3886C29.6114 13.4568 28.4641 13.4467 27.3381 13.3588C27.1678 13.3463 26.996 13.4072 26.8695 13.528C26.7434 13.6494 26.6713 13.8198 26.6713 13.9984V22.0102C26.6713 22.3644 26.949 22.6516 27.2914 22.6516H30.7826C31.1253 22.6516 31.4031 22.3644 31.4031 22.0106V14.0291C31.4031 13.8523 31.3327 13.6834 31.2086 13.5627C31.0842 13.4416 30.9218 13.3783 30.7468 13.3886ZM30.7468 13.3886C29.6116 13.4574 28.464 13.4462 27.3344 13.358C26.0634 13.2661 24.7462 13.0711 23.4119 12.7771L23.4123 5.94705C27.2009 5.10459 30.9807 5.10303 34.6618 5.94371L34.6615 12.7896C33.3778 13.1012 32.0629 13.3028 30.7468 13.3886ZM24.1996 35.9834C23.8572 35.9834 23.5796 35.6962 23.5796 35.342C23.5796 34.9878 23.8572 34.7006 24.1996 34.7006C24.7179 34.7006 25.218 34.5421 25.6457 34.2427C25.9295 34.044 26.3149 34.1213 26.507 34.4143C26.6991 34.7079 26.6247 35.1065 26.3411 35.3052C25.7072 35.7488 24.9665 35.9834 24.1996 35.9834ZM3.71649 29.6859C3.3741 29.6859 3.09642 29.3987 3.09642 29.0445V1.96033C3.09642 1.18385 3.70678 0.552216 4.45744 0.552216H26.6643C27.415 0.552216 28.0253 1.18386 28.0253 1.96033V4.72514C28.0253 5.0793 27.7476 5.36652 27.4052 5.36652C27.0628 5.36652 26.7852 5.0793 26.7852 4.72514V1.96033C26.7852 1.89095 26.731 1.83497 26.6643 1.83497L4.45742 1.83527C4.39094 1.83527 4.33652 1.89126 4.33652 1.96063V29.0448C4.33681 29.399 4.05918 29.6859 3.71649 29.6859ZM24.6259 35.9849H4.68488C3.67507 35.9849 2.71586 35.5736 1.98429 34.8272C1.25715 34.0754 0.858887 33.0823 0.858887 32.0275V29.0438C0.858887 28.6897 1.13657 28.4025 1.47896 28.4025H21.4199C21.7623 28.4025 22.04 28.6897 22.04 29.0438V32.0275C22.04 32.7397 22.3095 33.4106 22.7992 33.9169C23.2943 34.4217 23.944 34.7019 24.6259 34.7019C24.9683 34.7019 25.246 34.9891 25.246 35.3433C25.2463 35.6978 24.9685 35.9849 24.6259 35.9849ZM2.09898 29.6855V32.0277C2.09898 32.74 2.36842 33.4109 2.85818 33.9172C3.35324 34.4219 4.00301 34.7021 4.68488 34.7021H21.8088C21.156 33.9671 20.7996 33.0248 20.7996 32.0277V29.6855H2.09898ZM16.3049 26.3C16.2581 26.3 16.211 26.2963 16.1634 26.2884C15.7722 26.2236 15.4833 25.906 15.4448 25.4982L14.8409 19.1191L13.3216 23.3067C13.1948 23.6569 12.8794 23.883 12.5179 23.883C12.1596 23.9055 11.8387 23.6554 11.7129 23.303L10.7975 20.7481L9.40204 22.1915C9.28584 22.3117 9.12789 22.3796 8.96346 22.3796H6.86348C6.52109 22.3796 6.24341 22.0924 6.24341 21.7382C6.24341 21.384 6.52109 21.0968 6.86348 21.0968H8.70667L10.3413 19.406C10.5489 19.1915 10.8457 19.1018 11.132 19.1663C11.4193 19.2314 11.6514 19.4404 11.7535 19.7258L12.5198 21.8651L14.2567 17.0778C14.3976 16.6884 14.7747 16.4565 15.1724 16.5092C15.5707 16.5633 15.876 16.8901 15.9148 17.3036L16.5364 23.8723L18.3304 19.6521C18.4645 19.3366 18.7543 19.1337 19.0867 19.1218C19.4205 19.1121 19.7215 19.2919 19.8765 19.5965L21.3543 22.5064C21.4628 22.4951 21.5769 22.5173 21.6826 22.5718C21.9891 22.7303 22.1132 23.1155 21.9599 23.4326C21.8152 23.7317 21.5246 23.92 21.2007 23.9234C20.8569 23.9075 20.5824 23.7451 20.4318 23.4487L19.1467 20.9185L17.0847 25.769C16.9447 26.0988 16.6419 26.3 16.3049 26.3ZM27.9114 21.3688H30.1626V14.7003C29.4113 14.7259 28.6583 14.7195 27.9114 14.6809V21.3688ZM31.5191 36.8277H26.5556C26.2823 36.8277 26.0417 36.643 25.962 36.3725C24.8648 32.6371 24.8636 28.6656 25.9579 24.569C26.032 24.2909 26.2767 24.0983 26.5556 24.0983H31.5191C31.7944 24.0983 32.0365 24.286 32.1142 24.5589C33.2266 28.4766 33.2266 32.4493 32.1142 36.3672C32.0365 36.6401 31.7944 36.8277 31.5191 36.8277ZM27.0215 35.5446H31.0493C31.9264 32.1701 31.9264 28.755 31.0493 25.3806H27.0323C26.1651 28.9061 26.1614 32.3206 27.0215 35.5446ZM31.4799 25.3809H26.5879C25.5183 25.3809 24.6482 24.4812 24.6482 23.3749C24.6482 22.2686 25.5186 21.3686 26.5879 21.3686H31.4799C32.5536 21.3686 33.4269 22.2689 33.4269 23.3749C33.4269 24.4808 32.5535 25.3809 31.4799 25.3809ZM26.5879 22.651C26.2022 22.651 25.8884 22.9754 25.8884 23.3746C25.8884 23.7732 26.2019 24.0978 26.5879 24.0978H31.4799C31.8697 24.0978 32.1868 23.7735 32.1868 23.3746C32.1868 22.969 31.8764 22.651 31.4799 22.651H26.5879ZM31.4799 39.5578H26.5879C25.5183 39.5578 24.6482 38.6581 24.6482 37.5518C24.6482 36.4455 25.5186 35.5455 26.5879 35.5455H31.4799C32.5536 35.5455 33.4269 36.4458 33.4269 37.5518C33.4269 38.6578 32.5535 39.5578 31.4799 39.5578ZM26.5879 36.8283C26.2022 36.8283 25.8884 37.1526 25.8884 37.5518C25.8884 37.9504 26.2019 38.275 26.5879 38.275H31.4799C31.8697 38.275 32.1868 37.9507 32.1868 37.5518C32.1868 37.1462 31.8764 36.8283 31.4799 36.8283H26.5879ZM29.257 14.7153C28.5831 14.7153 27.9103 14.6894 27.2447 14.6374C25.7601 14.5303 24.2143 14.2878 22.6532 13.9175C22.3717 13.8509 22.1717 13.5914 22.1717 13.2923V5.43386C22.1717 5.13569 22.3702 4.87707 22.6512 4.80922C26.9535 3.7714 31.2515 3.77234 35.4271 4.81013C35.7056 4.8795 35.9021 5.13721 35.9021 5.43387V13.2923C35.9021 13.5853 35.7103 13.8412 35.4362 13.9136C33.9301 14.3131 32.3776 14.5668 30.8218 14.6684C30.3009 14.6998 29.7785 14.7153 29.257 14.7153ZM36.6909 14.8391C35.5723 14.8391 34.6624 13.8981 34.6624 12.7409V6.00125C34.6624 4.84418 35.5722 3.90303 36.6909 3.90303C37.8095 3.90303 38.7194 4.8441 38.7194 6.00125V12.7409C38.7194 13.8977 37.8096 14.8391 36.6909 14.8391ZM36.6909 5.18612C36.2564 5.18612 35.9025 5.55184 35.9025 6.00156V12.7412C35.9025 13.1906 36.2561 13.5567 36.6909 13.5567C37.1253 13.5567 37.4792 13.1909 37.4792 12.7412V6.00156C37.4792 5.55217 37.1254 5.18612 36.6909 5.18612ZM21.3841 14.8391C20.2654 14.8391 19.3556 13.8981 19.3556 12.7409V6.00125C19.3556 4.84418 20.2654 3.90303 21.3841 3.90303C22.5028 3.90303 23.4126 4.8441 23.4126 6.00125V12.7409C23.4126 13.8977 22.5028 14.8391 21.3841 14.8391ZM21.3841 5.18612C20.9496 5.18612 20.5957 5.55184 20.5957 6.00156V12.7412C20.5957 13.1906 20.9493 13.5567 21.3841 13.5567C21.8185 13.5567 22.1724 13.1909 22.1724 12.7412V6.00156C22.1724 5.55217 21.8188 5.18612 21.3841 5.18612Z" stroke="#003566" stroke-width="0.22536"/>
</svg>
